<svg width="662" height="118" viewBox="0 0 662 118" fill="none" xmlns="http://www.w3.org/2000/svg">
<path fill-rule="evenodd" clip-rule="evenodd" d="M495.378 104.147C483.7 103.539 466.044 95.5331 460.804 86.13C459.48 83.7515 454.963 71.3321 456.943 62.5263C459.639 50.5345 460.941 46.1096 461.741 44.4981L461.627 44.4575C462.703 40.5414 469.75 29.7002 472.331 27.4914L473.98 26.1122C476.727 23.7559 479.854 21.123 483.446 18.3574C487.553 15.2489 497.008 10.0495 506.422 10.3039C508.981 10.3519 511.393 10.8128 513.55 11.672C514.199 11.9412 516.921 13.5563 518.023 14.9834C519.694 16.3404 522.537 19.3567 522.592 22.0449C522.662 26.9825 521.762 27.8859 519.439 28.9037L518.698 29.2429L518.178 29.2319C514.793 29.147 512.525 28.4059 510.512 27.7347C509.081 27.2627 507.835 26.8497 506.489 26.8202C504.763 26.7944 502.879 27.3586 500.559 28.6529C498.302 29.8993 496.857 30.9465 495.19 32.1708C494.235 32.8751 493.228 33.5868 491.971 34.4202C487.233 37.632 481.543 44.8226 478.172 51.9247C474.861 58.9605 474.212 65.8229 474.691 69.5879L473.747 69.7317L474.596 69.964C474.588 70.082 474.09 80.1857 486.683 86.6831C488.556 87.6455 490.677 88.1397 493.162 88.1987C497.233 88.3056 501.754 87.2362 506.551 86.0894C512.016 84.8099 517.669 83.4713 523.495 83.5856C525.867 83.6704 528.053 83.9617 530.174 84.5038L530.395 84.5591L530.564 84.6771C532.475 86.13 533.223 87.1256 532.309 90.555C532.05 91.5285 531.438 93.811 514.704 101.334L514.398 101.488C509.712 103.561 500.135 104.265 496.049 104.158C496.049 104.158 495.588 104.147 495.378 104.147Z" fill="#5F6062"/>
<path fill-rule="evenodd" clip-rule="evenodd" d="M121.672 57.5026C122.114 55.9354 122.679 54.0622 123.394 51.8681C124.142 49.4971 124.88 47.2256 125.61 45.0241C126.137 43.4201 127.284 40.0202 128.291 37.0665L128.309 37.1292C129.622 39.8837 136.153 54.9951 136.916 57.1412C137.311 58.2881 137.731 59.3759 138.232 60.6444C136.274 60.4637 134.054 60.3051 131.89 60.1539C127.926 59.8552 123.029 59.5123 122.044 59.3537C121.771 59.1362 121.672 58.9297 121.672 58.5388V57.5026ZM169.403 87.2204C168.514 85.0928 167.747 83.2527 167.327 82.1133L141.629 5.31369C140.836 2.67712 139.324 1.08781 137.141 0.593687C135.352 0.217562 133.542 0 131.632 0C129.607 0 127.749 0.217562 126.104 0.593687C124.109 1.08781 122.564 2.62181 121.484 5.24731L103.854 52.7829C103.349 54.1952 102.412 55.6518 100.989 57.1858C99.4546 58.8083 97.9353 60.4529 96.4013 62.1491C94.9779 63.7163 93.6283 65.3351 92.275 67.1051C90.9143 68.9304 90.2432 70.7668 90.2432 72.6143C90.2432 74.5354 90.7263 76.0031 91.6998 76.9729C92.5184 77.7657 93.396 78.4516 94.3326 78.9715C95.1291 79.4435 95.8888 79.9044 96.5894 80.417C96.8512 80.5829 97.1831 80.9591 97.1831 81.9362V83.2084C97.1831 83.5624 97.1462 83.7505 97.1167 83.8316L96.9176 84.5986C96.7627 85.314 96.5009 86.3723 96.2022 87.8547C95.7486 89.8017 95.2508 92.0105 94.7788 94.3226L94.3806 95.9782C94.0118 97.6892 93.6431 99.2896 93.2854 100.86C92.8023 103.265 92.5848 104.375 92.5848 104.972C92.5848 105.879 92.7876 106.938 93.1711 108.191C93.4993 109.364 93.9602 110.588 94.5207 111.787C94.9632 112.767 95.4868 113.855 95.9883 114.7C96.2133 115.079 97.5334 116.883 98.7281 117.351C99.0784 117.55 99.9044 118 100.878 118C101.66 118 103.094 117.712 103.924 115.751C105.067 113.103 118.803 77.8874 119.352 76.4456C119.688 75.7081 120.307 74.281 121.045 73.4587C121.668 72.7728 122 72.6622 124.939 72.098C125.474 72.0206 128.309 72.098 131.599 72.1791C135.507 72.2639 140.061 72.3709 143.148 72.3414L159.41 109.74C160.136 111.174 162.312 114.526 166.667 114.526C168.016 114.526 169.48 114.176 170.966 113.531C172.032 113.037 172.91 112.211 173.629 111.016C174.211 110.079 174.621 109.01 174.864 107.907C175.137 106.871 175.262 105.798 175.262 104.666C175.292 101.55 172.633 94.9199 169.403 87.2204Z" fill="#5F6062"/>
<path fill-rule="evenodd" clip-rule="evenodd" d="M376.874 9.09099C377.955 9.2938 378.925 9.55193 379.965 10.0202C380.99 10.4369 381.871 10.9532 382.697 11.6796C383.501 12.4319 384.032 13.2357 384.419 14.1761L401.076 64.0016C401.076 64.0016 403.9 70.6354 408.148 78.4529C410.173 81.1706 420.048 94.0842 420.487 79.5812C420.634 74.2049 424.495 11.5653 424.495 11.5653C424.591 9.09099 425.033 7.10343 425.774 5.6063C426.501 4.13868 427.437 3.06561 428.566 2.4203C429.691 1.73443 431.07 1.32143 432.548 1.12968C434.016 0.926863 435.627 0.805176 437.449 0.805176C439.363 0.805176 441.542 0.982176 443.172 2.58255C446.867 6.26636 445.056 20.4485 443.884 38.2812L439.562 85.3522C439.134 89.7514 438.33 94.2391 437.656 96.1824C436.527 99.3684 434.591 101.629 432.452 103.605C430.295 105.515 427.839 106.898 425.077 107.813C408.554 113.248 400.659 97.0637 399.888 95.9648L380.99 64.6764V110.988C380.99 112.109 380.695 112.946 380.153 113.668C379.566 114.406 378.925 114.97 378.184 115.376C377.461 115.781 376.616 116.051 375.694 116.158C374.813 116.316 374.024 116.335 373.353 116.335C370.587 116.335 368.441 115.468 366.767 113.668C365.145 111.88 364.319 109.269 364.319 105.81V21.9677C364.319 20.5001 364.562 18.9772 365.093 17.3657C365.591 15.7764 366.273 14.4047 367.21 13.103C368.135 11.8124 369.164 10.8241 370.388 10.0202C371.664 9.20161 373.003 8.82549 374.315 8.82549C374.998 8.82549 375.894 8.90293 376.874 9.09099Z" fill="#5F6062"/>
<path fill-rule="evenodd" clip-rule="evenodd" d="M563.392 49.6108C563.897 54.0801 566.98 90.5052 566.98 90.5052C566.98 90.5052 574.997 89.3768 578.858 87.4483C582.733 85.5418 586.229 83.1265 589.374 80.1359C592.501 77.1823 595.083 73.9041 597.125 70.3419C599.124 66.7319 600.223 63.1882 600.146 59.7146C599.873 48.8733 594.474 42.5308 592.981 40.8788C584.68 31.6674 562.754 23.3005 562.754 23.3005C562.754 23.7578 562.717 24.5911 562.666 25.8301C562.577 27.0212 562.563 28.2639 562.563 29.525V33.4153V35.8233C562.563 40.4916 562.854 45.0641 563.392 49.6108ZM546.006 36.1992C546.006 33.5073 546.032 30.738 546.087 27.7917C546.175 24.9007 546.22 22.1683 546.271 19.6534C546.356 17.0721 546.658 15.1546 546.791 14.0263C546.998 12.1198 547.134 9.69345 549.704 8.5282C552.263 7.46989 556.098 6.19032 562.754 7.28182C563.798 7.4367 575.214 11.6109 581.616 14.3249C588.043 17.0721 593.818 20.3688 598.988 24.2296C604.161 28.142 608.354 32.7366 611.617 38.0946C614.896 43.423 616.533 49.7581 616.533 57.0926C616.533 63.2249 615.511 69.1581 613.487 74.8295C611.477 80.5525 608.631 85.7039 604.866 90.4497C601.13 95.1586 596.672 99.167 591.498 102.515C586.347 105.937 580.701 108.762 574.315 109.835C566.195 111.262 555.958 111.771 552.68 109.179C549.413 106.634 549.767 105.609 548.904 101.206C547.54 94.5207 546.006 44.603 546.006 41.5682V36.1992Z" fill="#5F6062"/>
<path fill-rule="evenodd" clip-rule="evenodd" d="M20.5341 28.8652C20.5193 31.1035 20.9213 33.7732 21.338 36.6237C21.8763 40.1563 22.4553 44.1314 22.3778 48.0734C22.1566 57.1151 22.4073 61.6139 22.7982 67.0013C23.7238 80.1362 24.1736 92.4487 24.0225 101.111C37.5003 99.1932 48.9168 92.8876 58.3678 86.9138C60.2927 85.6896 64.0097 82.1606 64.3932 81.4305C65.2782 79.513 65.6064 78.2887 65.6211 77.9716L65.6986 77.1825C65.8092 75.8992 65.894 75.1433 65.5105 72.7575C65.3999 72.1822 63.8106 67.9969 63.5193 67.4733C60.455 62.1891 53.74 58.8814 47.25 55.7028C38.8351 51.5581 30.129 47.299 28.3774 38.4711C28.0824 36.9629 28.2262 35.8899 28.4511 34.3817C28.5101 33.8544 28.595 33.2533 28.665 32.4826C28.8088 31.1625 30.9697 27.5856 31.3458 27.0657C32.0907 25.9742 32.5148 25.3031 32.854 24.761C33.4403 23.8649 33.7833 23.3081 34.9153 21.9696L34.9743 21.9142L35.0481 21.8589C36.1691 20.8596 36.6927 19.3551 36.6042 18.3742C36.5821 18.0129 36.4751 17.7326 36.3203 17.5925C35.7229 17.3565 35.0481 17.2606 34.3106 17.2606C32.1497 17.2606 29.4984 18.2009 26.9983 19.8419L26.5779 20.1074C23.8971 21.8847 21.3638 23.5699 20.5341 26.8039C20.405 27.3349 20.4493 28.4042 20.5009 28.655L19.3098 28.8541L20.5341 28.8652ZM22.8352 116.771C17.4257 116.771 13.8045 116.13 13.6423 116.115L13.4284 116.063L13.2367 115.956C3.97734 110.451 4.04003 95.3063 4.11009 81.9465C4.12853 78.3844 4.14328 75.0177 3.9884 71.9423C3.88884 69.9879 3.77822 67.8197 3.66022 65.5998C3.34678 59.6998 2.99278 52.9996 2.82684 47.3651C2.71991 43.272 1.98978 38.6036 1.28547 34.0422C1.11584 33.0355 0.949905 32.0546 0.78028 31.1032C0.24928 28.0906 -0.215345 25.5019 0.105468 23.7246C0.80978 19.9375 6.83147 12.3634 12.5028 8.18912C18.3955 3.83418 26.2167 1.25293 33.47 1.25293C40.7897 1.25293 46.9736 3.84524 51.3543 8.80862C58.486 16.8658 55.6318 22.9612 51.6788 31.3835C50.5173 33.8541 49.2193 36.6419 48.0024 39.7984C50.1633 41.1627 52.35 42.4534 54.4666 43.7034C65.7651 50.3446 76.4404 56.6207 81.3374 70.6074C84.4828 79.5791 84.7926 82.8315 80.2828 91.8622C78.5792 95.2731 77.4545 96.4974 75.5702 98.5181C75.1645 98.9459 74.7442 99.4068 74.2685 99.9304C72.6349 101.719 70.6584 102.711 67.9223 104.105C66.934 104.595 65.861 105.178 64.6146 105.841C55.8088 110.598 33.8387 116.1 28.4107 116.543C26.5707 116.709 24.7011 116.771 22.8352 116.771Z" fill="#5F6062"/>
<path fill-rule="evenodd" clip-rule="evenodd" d="M201.303 3.48597C203.276 4.30459 205.706 5.86809 206.159 7.62334C206.723 10.0239 206.506 12.7158 206.723 16.7757C206.9 20.0133 207.616 45.0109 207.737 48.6947C207.892 52.397 208.036 56.2688 208.213 60.362C208.405 64.4588 208.538 68.3307 208.685 72.0218C208.807 75.7093 208.936 79.017 209.035 81.9043C209.168 84.7732 209.29 86.9783 209.434 88.3907C210.064 91.2263 210.861 93.4241 211.853 94.9691C212.834 96.4884 214.947 97.2517 218.195 97.2517C218.678 97.2517 219.331 97.2185 220.164 97.178C220.972 97.1079 221.411 97.0305 221.536 96.8977C221.536 96.8977 233.262 91.3075 234.476 90.6843C235.7 90.0463 238.779 89.8841 239.634 89.8841C241.261 89.8841 243.421 89.9283 246.169 90.3266C247.957 90.5552 249.436 90.9645 251.073 91.4144C252.692 91.9565 254.034 92.6608 255.063 93.7338C256.143 94.7811 257.958 98.7083 252.92 101.721C250.413 103.218 249.447 103.959 244.856 105.892C240.246 107.787 235.829 109.553 231.607 111.128C227.373 112.713 223.62 114.03 220.334 115.081C217.034 116.117 215.256 116.397 213.722 116.666C210.02 117.238 206.535 115.582 203.364 113.51C200.189 111.46 197.438 108.867 195.06 105.892C192.685 102.879 190.845 99.5933 189.459 95.9943C188.098 92.4285 187.416 89.1872 187.416 86.2556C187.416 86.2556 187.571 9.48553 187.571 7.02228C187.571 4.49265 187.854 2.63784 189.488 1.87084C192.751 0.333153 197.07 1.87084 201.303 3.48597Z" fill="#5F6062"/>
<path fill-rule="evenodd" clip-rule="evenodd" d="M298.21 93.1798C298.21 88.1906 302.612 84.1602 308.063 84.1602C313.509 84.1602 317.905 88.1906 317.905 93.1798C317.905 98.1321 313.509 102.148 308.063 102.148C302.612 102.148 298.21 98.1321 298.21 93.1798Z" fill="#D5D929"/>
<path fill-rule="evenodd" clip-rule="evenodd" d="M275.881 117.474C272.602 117.474 270.512 114.034 270.489 114.001C270.036 113.237 269.527 112.268 269.011 111.176C268.435 109.981 267.986 108.812 267.639 107.655C267.13 106.124 267.296 102.429 267.768 100.431C268.093 99.0184 282.795 53.7249 283.075 52.8878C283.075 52.8878 292.714 23.2882 292.876 22.8789C293.595 21.1458 293.252 20.6996 291.829 20.6517C276.684 19.8994 269.8 19.4274 269.243 19.1951C267.584 18.6199 266.374 17.6574 265.799 16.4369L265.567 15.9095L265.71 13.273L265.74 13.166C266.396 10.9093 267.09 9.8731 268.019 8.44973C269.933 5.65091 271.71 3.67441 277.887 3.38679C278.926 3.33516 303.301 2.42066 304.99 2.42066L336.765 1.92285C340.548 1.92285 342.927 2.82629 344.486 4.92448C345.445 6.17085 346.422 7.69379 347.613 9.83254C348.639 11.6726 349.446 13.4389 350.106 15.1573C350.836 16.813 350.763 18.4281 349.933 19.6634C349.162 20.7844 347.846 21.4998 346.009 21.7358L344.73 21.7911C342.407 21.7911 335.072 21.4408 326.278 21.1237C324.64 21.0389 323.368 21.1237 323.954 22.96C328.907 38.1894 338.199 66.1038 342.222 77.3507C344.077 82.5943 349.719 100.567 351.596 105.365C356.22 117.231 340.972 113.813 340.972 113.813C336.201 112.529 334.663 106.74 334.246 105.999C334.246 105.999 311.531 53.7691 310.879 52.1687C309.599 49.156 308.751 46.9325 308.205 45.5202L308.139 45.262C307.298 43.1122 306.763 41.7257 306.037 40.5531C305.794 41.2279 305.458 42.1535 305.082 43.1565C304.518 44.6942 303.902 46.3904 303.577 47.3344L303.201 48.4001C302.832 49.4658 302.445 50.5794 302.054 51.8037L301.782 52.5965H301.73C301.56 53.1496 301.354 53.8097 301.11 54.573C300.476 56.5089 299.997 58.0687 299.58 59.352C299.433 59.8461 282.533 111.596 279.848 115.299C278.547 117.08 276.979 117.474 275.881 117.474Z" fill="#5F6062"/>
<path fill-rule="evenodd" clip-rule="evenodd" d="M624.55 8.1875H638.669V10.99H633.024C632.976 17.0559 633.024 23.2694 633.013 29.3906H630.188V11.0453C628.363 10.9753 626.39 11.0121 624.524 10.99V8.26125C624.524 8.23175 624.524 8.1875 624.55 8.1875Z" fill="#5F6062"/>
<path fill-rule="evenodd" clip-rule="evenodd" d="M641.51 8.1875H645.08C647.211 11.4436 649.269 14.8213 651.349 18.1843C653.502 14.8914 655.53 11.4731 657.647 8.1875H661.257V29.3906H658.44V12.3359C656.124 15.9939 653.723 19.8142 651.397 23.5791C648.981 19.8511 646.691 16.0493 644.302 12.2917V29.3906H641.473V8.26125C641.473 8.23175 641.473 8.1875 641.51 8.1875Z" fill="#5F6062"/>
</svg>
