<svg width="307" height="55" viewBox="0 0 307 55" fill="none" xmlns="http://www.w3.org/2000/svg">
<path fill-rule="evenodd" clip-rule="evenodd" d="M229.992 48.3522C224.57 48.0697 216.373 44.353 213.94 39.9874C213.325 38.8832 211.228 33.1172 212.148 29.0289C213.399 23.4615 214.003 21.4072 214.375 20.659L214.322 20.6402C214.822 18.8221 218.093 13.7888 219.292 12.7633L220.057 12.123C221.332 11.0291 222.784 9.8067 224.452 8.52271C226.359 7.0795 230.748 4.66559 235.119 4.78372C236.307 4.80598 237.427 5.01997 238.428 5.41887C238.73 5.54384 239.993 6.2937 240.505 6.95624C241.281 7.58625 242.601 8.98666 242.626 10.2347C242.659 12.5271 242.241 12.9465 241.162 13.419L240.818 13.5765L240.577 13.5714C239.005 13.532 237.952 13.1879 237.018 12.8763C236.353 12.6572 235.775 12.4654 235.15 12.4517C234.349 12.4397 233.474 12.7017 232.397 13.3026C231.349 13.8812 230.678 14.3674 229.904 14.9358C229.461 15.2628 228.994 15.5932 228.41 15.9801C226.21 17.4713 223.568 20.8097 222.004 24.107C220.466 27.3734 220.165 30.5595 220.387 32.3074L219.949 32.3742L220.343 32.482C220.339 32.5368 220.108 37.2277 225.955 40.2442C226.824 40.691 227.809 40.9204 228.963 40.9478C230.853 40.9975 232.952 40.501 235.179 39.9686C237.716 39.3745 240.341 38.7531 243.046 38.8061C244.146 38.8455 245.162 38.9808 246.146 39.2324L246.249 39.2581L246.328 39.3129C247.214 39.9874 247.562 40.4496 247.137 42.0418C247.017 42.4938 246.733 43.5535 238.964 47.0459L238.822 47.1178C236.646 48.08 232.2 48.407 230.303 48.3573C230.303 48.3573 230.089 48.3522 229.992 48.3522Z" fill="#5F6062"/>
<path fill-rule="evenodd" clip-rule="evenodd" d="M56.488 26.6967C56.6934 25.9691 56.9553 25.0994 57.2875 24.0808C57.635 22.98 57.9774 21.9254 58.3164 20.9033C58.5612 20.1586 59.0936 18.5802 59.561 17.2089L59.5696 17.238C60.179 18.5168 63.211 25.5326 63.5653 26.5289C63.7485 27.0614 63.9437 27.5664 64.1765 28.1553C63.2675 28.0714 62.2368 27.9978 61.2319 27.9276C59.3915 27.789 57.118 27.6297 56.6609 27.5561C56.5342 27.4551 56.488 27.3593 56.488 27.1778V26.6967ZM78.6498 40.4937C78.2372 39.5059 77.8811 38.6516 77.6859 38.1226L65.755 2.46698C65.387 1.24291 64.685 0.505037 63.6715 0.275631C62.8412 0.101007 62.0006 0 61.1138 0C60.1739 0 59.3111 0.101007 58.5476 0.275631C57.6214 0.505037 56.904 1.21723 56.4024 2.43616L48.2174 24.5054C47.9829 25.1611 47.548 25.8374 46.8872 26.5496C46.175 27.3028 45.4697 28.0664 44.7575 28.8539C44.0966 29.5815 43.47 30.3331 42.8417 31.1548C42.21 32.0023 41.8984 32.8548 41.8984 33.7125C41.8984 34.6045 42.1227 35.2859 42.5747 35.7361C42.9547 36.1042 43.3622 36.4226 43.797 36.664C44.1668 36.8831 44.5195 37.0971 44.8448 37.3351C44.9663 37.4122 45.1204 37.5868 45.1204 38.0405V38.6311C45.1204 38.7954 45.1033 38.8828 45.0896 38.9204L44.9971 39.2765C44.9252 39.6086 44.8037 40.1 44.665 40.7882C44.4544 41.6921 44.2233 42.7176 44.0042 43.791L43.8193 44.5597C43.6481 45.3541 43.4769 46.0971 43.3108 46.8264C43.0866 47.9426 42.9856 48.4579 42.9856 48.7353C42.9856 49.1564 43.0797 49.6478 43.2578 50.2298C43.4101 50.7742 43.6241 51.3426 43.8843 51.899C44.0898 52.3544 44.3329 52.8595 44.5657 53.2515C44.6702 53.4278 45.283 54.265 45.8377 54.4824C46.0004 54.5749 46.3839 54.7837 46.8358 54.7837C47.1988 54.7837 47.8647 54.6502 48.2499 53.7394C48.7806 52.5102 55.1578 36.1607 55.4129 35.4913C55.5687 35.1489 55.8563 34.4864 56.1987 34.1046C56.488 33.7862 56.6421 33.7348 58.0066 33.4729C58.2548 33.4369 59.5713 33.4729 61.0984 33.5105C62.9131 33.5499 65.0274 33.5995 66.4604 33.5858L74.0103 50.9489C74.3475 51.6148 75.3576 53.171 77.3795 53.171C78.006 53.171 78.6857 53.0084 79.3756 52.7088C79.8704 52.4794 80.2779 52.0959 80.6117 51.5412C80.8822 51.1064 81.0722 50.6099 81.1852 50.098C81.3119 49.6169 81.3701 49.1188 81.3701 48.5932C81.3838 47.1465 80.1495 44.0684 78.6498 40.4937Z" fill="#5F6062"/>
<path fill-rule="evenodd" clip-rule="evenodd" d="M174.97 4.22062C175.472 4.31478 175.922 4.43462 176.405 4.65205C176.881 4.8455 177.29 5.08518 177.673 5.42244C178.046 5.77169 178.293 6.1449 178.473 6.58146L186.206 29.7139C186.206 29.7139 187.517 32.7938 189.489 36.4232C190.429 37.6849 195.014 43.6803 195.218 36.9471C195.286 34.451 197.079 5.36937 197.079 5.36937C197.123 4.22062 197.329 3.29786 197.673 2.60279C198.01 1.92142 198.445 1.42323 198.969 1.12363C199.491 0.805201 200.131 0.613458 200.818 0.524435C201.499 0.430275 202.247 0.373779 203.093 0.373779C203.981 0.373779 204.993 0.455955 205.75 1.19896C207.465 2.90924 206.625 9.49356 206.08 17.7727L204.074 39.6263C203.875 41.6687 203.502 43.7522 203.189 44.6544C202.665 46.1336 201.766 47.1831 200.773 48.1007C199.772 48.9875 198.631 49.6295 197.349 50.0541C189.678 52.5775 186.012 45.0636 185.654 44.5534L176.881 30.0272V51.5281C176.881 52.0485 176.744 52.4372 176.492 52.7727C176.22 53.1151 175.922 53.377 175.578 53.5654C175.242 53.7537 174.85 53.8787 174.422 53.9283C174.013 54.0019 173.647 54.0105 173.335 54.0105C172.051 54.0105 171.055 53.6082 170.277 52.7727C169.524 51.9424 169.141 50.7303 169.141 49.1245V10.1989C169.141 9.51753 169.254 8.81047 169.5 8.06233C169.731 7.32447 170.048 6.6876 170.483 6.08327C170.913 5.48407 171.39 5.02526 171.959 4.65205C172.551 4.27198 173.172 4.09736 173.782 4.09736C174.099 4.09736 174.515 4.13331 174.97 4.22062Z" fill="#5F6062"/>
<path fill-rule="evenodd" clip-rule="evenodd" d="M261.566 23.0329C261.8 25.1078 263.231 42.0189 263.231 42.0189C263.231 42.0189 266.953 41.495 268.746 40.5996C270.545 39.7145 272.168 38.5932 273.628 37.2048C275.08 35.8335 276.278 34.3115 277.227 32.6577C278.155 30.9817 278.665 29.3364 278.629 27.7238C278.502 22.6905 275.996 19.7459 275.303 18.9789C271.449 14.7023 261.269 10.8178 261.269 10.8178C261.269 11.0301 261.252 11.417 261.228 11.9923C261.187 12.5452 261.18 13.1222 261.18 13.7077V15.5138V16.6318C261.18 18.7991 261.316 20.922 261.566 23.0329ZM253.496 16.8062C253.496 15.5565 253.508 14.2708 253.534 12.9029C253.575 11.5607 253.595 10.2921 253.619 9.12452C253.659 7.92613 253.799 7.03589 253.861 6.51202C253.957 5.62692 254.02 4.50043 255.213 3.95944C256.401 3.4681 258.182 2.87404 261.272 3.38079C261.756 3.45269 267.057 5.39067 270.029 6.65069C273.013 7.92613 275.694 9.45665 278.094 11.2491C280.496 13.0655 282.442 15.1987 283.958 17.6862C285.48 20.16 286.24 23.1012 286.24 26.5064C286.24 29.3534 285.765 32.108 284.826 34.7411C283.893 37.3981 282.571 39.7897 280.823 41.993C279.089 44.1793 277.019 46.0402 274.617 47.5947C272.225 49.1834 269.604 50.4948 266.639 50.993C262.869 51.6555 258.117 51.8918 256.595 50.6883C255.078 49.507 255.242 49.031 254.842 46.9869C254.208 43.8831 253.496 20.7079 253.496 19.2989V16.8062Z" fill="#5F6062"/>
<path fill-rule="evenodd" clip-rule="evenodd" d="M9.53502 13.4012C9.52817 14.4404 9.71478 15.6799 9.90823 17.0033C10.1582 18.6433 10.427 20.4889 10.391 22.319C10.2883 26.5168 10.4047 28.6054 10.5862 31.1066C11.0159 37.2048 11.2248 42.9211 11.1546 46.9426C17.4119 46.0523 22.7122 43.1248 27.1001 40.3514C27.9937 39.783 29.7194 38.1446 29.8974 37.8057C30.3083 36.9154 30.4607 36.347 30.4675 36.1998L30.5035 35.8334C30.5548 35.2377 30.5942 34.8867 30.4162 33.7791C30.3648 33.512 29.627 31.5689 29.4917 31.3258C28.069 28.8725 24.9515 27.3368 21.9384 25.8611C18.0316 23.9368 13.9896 21.9595 13.1764 17.861C13.0395 17.1608 13.1062 16.6626 13.2107 15.9624C13.2381 15.7175 13.2774 15.4385 13.31 15.0807C13.3767 14.4678 14.38 12.8072 14.5546 12.5658C14.9004 12.059 15.0973 11.7474 15.2548 11.4958C15.527 11.0798 15.6862 10.8212 16.2118 10.1998L16.2392 10.1741L16.2734 10.1484C16.7939 9.68449 17.037 8.986 16.9959 8.53061C16.9856 8.36283 16.936 8.23272 16.8641 8.16766C16.5867 8.0581 16.2734 8.01358 15.931 8.01358C14.9278 8.01358 13.6969 8.45014 12.5361 9.21198L12.341 9.33524C11.0964 10.1604 9.92022 10.9428 9.53502 12.4442C9.4751 12.6907 9.49564 13.1872 9.51961 13.3036L8.96664 13.3961L9.53502 13.4012ZM10.6017 54.2133C8.09019 54.2133 6.40901 53.9155 6.33369 53.9086L6.23439 53.8846L6.14537 53.835C1.84656 51.279 1.87566 44.2478 1.90819 38.0453C1.91675 36.3915 1.9236 34.8285 1.85169 33.4007C1.80547 32.4933 1.75411 31.4867 1.69933 30.456C1.55381 27.7169 1.38945 24.6062 1.31242 21.9902C1.26277 20.0899 0.923793 17.9226 0.596803 15.8048C0.518051 15.3374 0.441011 14.8821 0.36226 14.4404C0.115733 13.0417 -0.0999779 11.8398 0.0489654 11.0147C0.375956 9.25645 3.17164 5.74002 5.80468 3.80204C8.54044 1.78018 12.1716 0.581787 15.5391 0.581787C18.9374 0.581787 21.8084 1.78532 23.8422 4.08966C27.1532 7.83036 25.8281 10.6603 23.9929 14.5705C23.4536 15.7175 22.851 17.0118 22.286 18.4772C23.2892 19.1107 24.3045 19.7099 25.2871 20.2902C30.5327 23.3735 35.4889 26.2873 37.7624 32.7809C39.2228 36.9462 39.3666 38.4562 37.2728 42.6488C36.4819 44.2324 35.9597 44.8008 35.0849 45.739C34.8966 45.9376 34.7014 46.1516 34.4805 46.3947C33.7221 47.225 32.8045 47.6855 31.5342 48.3327C31.0754 48.5604 30.5772 48.8308 29.9985 49.139C25.9103 51.3475 15.7103 53.9018 13.1902 54.1072C12.3359 54.1842 11.4679 54.2133 10.6017 54.2133Z" fill="#5F6062"/>
<path fill-rule="evenodd" clip-rule="evenodd" d="M93.461 1.61839C94.3769 1.99846 95.5051 2.72434 95.7157 3.53925C95.9777 4.65376 95.8767 5.90351 95.9777 7.78841C96.0598 9.29154 96.392 20.8971 96.4485 22.6074C96.5204 24.3263 96.5871 26.1238 96.6693 28.0242C96.7583 29.9262 96.82 31.7238 96.8884 33.4375C96.9449 35.1495 97.0049 36.6851 97.0511 38.0256C97.1127 39.3575 97.1692 40.3813 97.236 41.037C97.5287 42.3535 97.8985 43.3739 98.359 44.0912C98.8144 44.7965 99.7954 45.1509 101.304 45.1509C101.528 45.1509 101.831 45.1355 102.218 45.1167C102.593 45.0842 102.797 45.0482 102.855 44.9866C102.855 44.9866 108.299 42.3912 108.862 42.1019C109.43 41.8057 110.86 41.7304 111.257 41.7304C112.012 41.7304 113.015 41.7509 114.291 41.9358C115.121 42.0419 115.808 42.232 116.568 42.4408C117.319 42.6925 117.943 43.0195 118.42 43.5177C118.922 44.0039 119.764 45.8272 117.425 47.2259C116.261 47.9209 115.813 48.265 113.681 49.1621C111.541 50.0421 109.49 50.8621 107.53 51.5931C105.565 52.3293 103.822 52.9405 102.297 53.4284C100.764 53.9095 99.9392 54.0396 99.227 54.1646C97.5082 54.4299 95.8903 53.6612 94.418 52.6991C92.944 51.7472 91.6669 50.5437 90.5626 49.1621C89.4601 47.7634 88.6058 46.238 87.9621 44.5671C87.3304 42.9116 87.0137 41.4068 87.0137 40.0458C87.0137 40.0458 87.0856 4.4038 87.0856 3.26019C87.0856 2.08577 87.2174 1.22464 87.9758 0.868541C89.4909 0.154641 91.4957 0.868541 93.461 1.61839Z" fill="#5F6062"/>
<path fill-rule="evenodd" clip-rule="evenodd" d="M138.449 43.2604C138.449 40.9441 140.493 39.0729 143.024 39.0729C145.552 39.0729 147.593 40.9441 147.593 43.2604C147.593 45.5596 145.552 47.424 143.024 47.424C140.493 47.424 138.449 45.5596 138.449 43.2604Z" fill="#D5D929"/>
<path fill-rule="evenodd" clip-rule="evenodd" d="M128.083 54.5397C126.561 54.5397 125.591 52.9424 125.58 52.927C125.37 52.5726 125.134 52.1223 124.894 51.6156C124.627 51.0609 124.418 50.5182 124.257 49.9806C124.021 49.2702 124.098 47.5547 124.317 46.6268C124.468 45.9712 131.293 24.9428 131.423 24.5541C131.423 24.5541 135.899 10.812 135.974 10.6219C136.308 9.81731 136.149 9.61016 135.488 9.58791C128.457 9.23866 125.26 9.01952 125.002 8.91167C124.231 8.6446 123.67 8.19777 123.403 7.6311L123.295 7.38628L123.362 6.16221L123.375 6.11256C123.68 5.06482 124.002 4.58375 124.433 3.92293C125.322 2.62352 126.147 1.7059 129.015 1.57236C129.497 1.54839 140.814 1.12382 141.598 1.12382L156.35 0.8927C158.107 0.8927 159.211 1.31214 159.935 2.28626C160.38 2.86491 160.834 3.57197 161.387 4.56492C161.863 5.41921 162.238 6.23925 162.544 7.03704C162.883 7.80572 162.849 8.55557 162.464 9.12909C162.106 9.64954 161.495 9.98166 160.642 10.0912L160.048 10.1169C158.969 10.1169 155.564 9.95427 151.481 9.80704C150.721 9.76766 150.13 9.80704 150.403 10.6596C152.702 17.7301 157.016 30.6899 158.884 35.9115C159.745 38.3459 162.364 46.6902 163.236 48.9175C165.383 54.4267 158.303 52.8397 158.303 52.8397C156.088 52.2439 155.374 49.5561 155.181 49.212C155.181 49.212 144.635 24.9633 144.332 24.2203C143.738 22.8216 143.344 21.7893 143.091 21.1336L143.06 21.0137C142.67 20.0156 142.421 19.3719 142.084 18.8275C141.971 19.1408 141.815 19.5705 141.641 20.0362C141.379 20.7501 141.093 21.5376 140.942 21.9759L140.768 22.4706C140.596 22.9654 140.417 23.4824 140.235 24.0508L140.108 24.4189H140.084C140.006 24.6757 139.91 24.9821 139.797 25.3365C139.502 26.2353 139.28 26.9595 139.086 27.5553C139.018 27.7847 131.172 51.8108 129.925 53.5296C129.321 54.3565 128.594 54.5397 128.083 54.5397Z" fill="#5F6062"/>
<path fill-rule="evenodd" clip-rule="evenodd" d="M289.959 3.80103H296.514V5.10214H293.893C293.871 7.91837 293.893 10.8031 293.888 13.645H292.577V5.12782C291.729 5.09529 290.814 5.11241 289.947 5.10214V3.83527C289.947 3.82157 289.947 3.80103 289.959 3.80103Z" fill="#5F6062"/>
<path fill-rule="evenodd" clip-rule="evenodd" d="M297.832 3.80103H299.489C300.478 5.31271 301.434 6.8809 302.399 8.44223C303.399 6.91343 304.341 5.32641 305.323 3.80103H306.999V13.645H305.691V5.72702C304.616 7.42531 303.502 9.19893 302.421 10.9469C301.3 9.21605 300.237 7.45099 299.128 5.70647V13.645H297.814V3.83527C297.814 3.82157 297.814 3.80103 297.832 3.80103Z" fill="#5F6062"/>
</svg>
